<svg xmlns="http://www.w3.org/2000/svg" width="275.53" height="275.53" viewBox="0 0 275.53 275.53">
  <defs>
    <style>
      .cls-1 {
        fill: #ffca00;
      }

      .cls-2 {
        fill: #fff;
      }
    </style>
  </defs>
  <g id="Layer_2" data-name="Layer 2">
    <g id="Layer_1-2" data-name="Layer 1">
      <g>
        <path class="cls-1" d="M275.53,137.76v.41c0,3.6-.16,7.16-.44,10.7-.08,1-.17,2-.28,3-.44,4.26-1.06,8.46-1.89,12.6a.6.6,0,0,1,0,.12q-1.15,5.88-2.81,11.57c-.26.91-.53,1.83-.81,2.73-.87,2.77-1.83,5.52-2.87,8.22-.62,1.61-1.27,3.22-2,4.81q-1.14,2.67-2.4,5.28-1.67,3.5-3.53,6.87c-.5.91-1,1.81-1.52,2.71q-2.47,4.26-5.24,8.31l-.34.51q-3,4.31-6.24,8.38L244,225.45c-1.79,2.15-3.63,4.26-5.54,6.3-1,1-1.94,2.05-2.95,3.06-1.42,1.44-2.89,2.85-4.38,4.23-1.65,1.51-3.32,3-5,4.42-.89.76-1.8,1.49-2.71,2.22-2.41,1.9-4.86,3.73-7.39,5.46-.35.25-.7.5-1,.73q-4.34,3-8.89,5.56l-1.18.66c-2.76,1.54-5.57,3-8.44,4.34-1.15.55-2.31,1.07-3.48,1.59q-3.28,1.43-6.63,2.7c-2.15.81-4.3,1.56-6.48,2.25h0c-1.5.48-3,.94-4.51,1.37-3.14.89-6.34,1.67-9.58,2.34-.69.15-1.4.29-2.1.42q-6.32,1.2-12.83,1.81L150,275q-6,.56-12.24.55h-.7c-1.5,0-3,0-4.46-.1q-5.62-.21-11.13-.86c-3.1-.37-6.18-.83-9.21-1.4-2.86-.54-5.7-1.16-8.5-1.87h0A134.8,134.8,0,0,1,87.28,266q-3-1.19-6-2.52a138.34,138.34,0,0,1-69.24-69.23c-.88-2-1.72-4-2.51-6a136.11,136.11,0,0,1-5.33-16.49h0q-1-4.19-1.86-8.48c-.57-3-1-6.11-1.4-9.22-.44-3.67-.72-7.38-.87-11.13,0-1.48-.08-3-.09-4.45v-.71q0-6.18.55-12.23c0-.28,0-.55.07-.84q.6-6.5,1.81-12.82c.13-.71.27-1.41.42-2.12.67-3.22,1.45-6.42,2.34-9.56.42-1.51.87-3,1.36-4.5q1-3.28,2.26-6.51c.85-2.23,1.74-4.44,2.71-6.61.5-1.17,1-2.33,1.58-3.49,1.34-2.86,2.8-5.68,4.33-8.44.22-.39.44-.79.67-1.18q2.61-4.56,5.56-8.89c.23-.35.48-.7.73-1q2.59-3.8,5.45-7.39c.74-.92,1.47-1.82,2.23-2.71,1.43-1.72,2.91-3.4,4.42-5s2.78-3,4.23-4.38c1-1,2-2,3.06-3q3.06-2.86,6.3-5.54l1.44-1.17c2.7-2.18,5.51-4.26,8.38-6.24l.51-.34q4.05-2.76,8.31-5.24c.9-.51,1.8-1,2.71-1.52,2.25-1.24,4.54-2.43,6.86-3.54,1.74-.83,3.51-1.63,5.29-2.39q2.39-1,4.81-2c2.7-1,5.45-2,8.22-2.87l2.73-.82Q105,3.78,110.91,2.62l.12,0c4.14-.82,8.33-1.44,12.6-1.89,1-.1,2-.19,3-.27,3.54-.28,7.1-.43,10.7-.44h.4c2.25,0,4.48.06,6.7.16,2.81.13,5.59.36,8.35.66q6.09.66,12,1.84c1.82.36,3.62.75,5.42,1.19a134.44,134.44,0,0,1,20.59,6.76c.45.17.9.36,1.36.56a138.22,138.22,0,0,1,72.18,72.18c.2.45.38.91.56,1.36a134.56,134.56,0,0,1,6.76,20.6c.43,1.79.83,3.6,1.19,5.41.79,3.94,1.4,8,1.84,12,.3,2.76.53,5.55.66,8.36C275.47,133.3,275.53,135.53,275.53,137.76Z"/>
        <path class="cls-2" d="M272.87,110.72,164.81,2.66c1.82.36,3.62.75,5.42,1.19a134.44,134.44,0,0,1,20.59,6.76l74.1,74.1a134.56,134.56,0,0,1,6.76,20.6C272.11,107.1,272.51,108.91,272.87,110.72Z"/>
        <path class="cls-2" d="M275.53,137.76v.41c0,3.6-.16,7.16-.44,10.7L126.66.44c3.54-.28,7.1-.43,10.7-.44h.4c2.25,0,4.48.06,6.7.16L275.37,131.08C275.47,133.3,275.53,135.53,275.53,137.76Z"/>
        <path class="cls-2" d="M272.92,164.5a.6.6,0,0,1,0,.12q-1.15,5.88-2.81,11.57c-.26.91-.53,1.83-.81,2.73L96.61,6.25l2.73-.82Q105,3.78,110.91,2.62l.12,0Z"/>
        <path class="cls-2" d="M264.46,192q-1.14,2.67-2.4,5.28-1.67,3.5-3.53,6.87L71.43,17c2.25-1.24,4.54-2.43,6.86-3.54,1.74-.83,3.51-1.63,5.29-2.39Z"/>
        <path class="cls-2" d="M251.77,215.12l-.34.51q-3,4.31-6.24,8.38L244,225.45,50.08,31.51l1.44-1.17c2.7-2.18,5.51-4.26,8.38-6.24l.51-.34Z"/>
        <path class="cls-2" d="M235.53,234.81c-1.42,1.44-2.89,2.85-4.38,4.23-1.65,1.51-3.32,3-5,4.42l-194-194c1.43-1.72,2.91-3.4,4.42-5s2.78-3,4.23-4.38Z"/>
        <path class="cls-2" d="M216,251.14c-.35.25-.7.5-1,.73q-4.34,3-8.89,5.56l-1.18.66L17.43,70.64c.22-.39.44-.79.67-1.18q2.61-4.56,5.56-8.89c.23-.35.48-.7.73-1Z"/>
        <path class="cls-2" d="M193,264q-3.28,1.43-6.63,2.7c-2.15.81-4.3,1.56-6.48,2.25h0L6.55,95.69q1-3.28,2.26-6.51c.85-2.23,1.74-4.44,2.71-6.61Z"/>
        <path class="cls-2" d="M165.76,272.68c-.69.15-1.4.29-2.1.42q-6.32,1.2-12.83,1.81L150,275,.55,125.53c0-.28,0-.55.07-.84q.6-6.5,1.81-12.82c.13-.71.27-1.41.42-2.12Z"/>
        <path class="cls-2" d="M132.6,275.43q-5.62-.21-11.13-.86c-3.1-.37-6.18-.83-9.21-1.4L2.36,163.27c-.57-3-1-6.11-1.4-9.22-.44-3.67-.72-7.38-.87-11.13Z"/>
        <path class="cls-2" d="M87.28,266q-3-1.19-6-2.52a138.34,138.34,0,0,1-69.24-69.23c-.88-2-1.72-4-2.51-6Z"/>
      </g>
    </g>
  </g>
</svg>
