<svg xmlns="http://www.w3.org/2000/svg" width="687.06" height="399.85" viewBox="0 0 687.06 399.85">
  <defs>
    <style>
      .cls-1 {
        fill: none;
        stroke: #ffca00;
        stroke-miterlimit: 10;
        stroke-width: 11px;
      }
    </style>
  </defs>
  <g id="Layer_2" data-name="Layer 2">
    <g id="Layer_1-2" data-name="Layer 1">
      <line class="cls-1" x1="659.75" x2="659.75" y2="399.85"/>
      <line class="cls-1" x1="681.56" x2="681.56" y2="399.85"/>
      <line class="cls-1" x1="616.13" x2="616.13" y2="399.85"/>
      <line class="cls-1" x1="637.94" x2="637.94" y2="399.85"/>
      <line class="cls-1" x1="572.51" x2="572.51" y2="399.85"/>
      <line class="cls-1" x1="594.32" x2="594.32" y2="399.85"/>
      <line class="cls-1" x1="528.9" x2="528.9" y2="399.85"/>
      <line class="cls-1" x1="550.71" x2="550.71" y2="399.85"/>
      <line class="cls-1" x1="485.28" x2="485.28" y2="399.85"/>
      <line class="cls-1" x1="507.09" x2="507.09" y2="399.85"/>
      <line class="cls-1" x1="441.67" x2="441.67" y2="399.85"/>
      <line class="cls-1" x1="463.47" x2="463.47" y2="399.85"/>
      <line class="cls-1" x1="398.05" x2="398.05" y2="399.85"/>
      <line class="cls-1" x1="419.86" x2="419.86" y2="399.85"/>
      <line class="cls-1" x1="354.43" x2="354.43" y2="399.85"/>
      <line class="cls-1" x1="376.24" x2="376.24" y2="399.85"/>
      <line class="cls-1" x1="310.82" x2="310.82" y2="399.85"/>
      <line class="cls-1" x1="332.62" x2="332.62" y2="399.85"/>
      <line class="cls-1" x1="267.2" x2="267.2" y2="399.85"/>
      <line class="cls-1" x1="289.01" x2="289.01" y2="399.85"/>
      <line class="cls-1" x1="223.58" x2="223.58" y2="399.85"/>
      <line class="cls-1" x1="245.39" x2="245.39" y2="399.85"/>
      <line class="cls-1" x1="179.97" x2="179.97" y2="399.85"/>
      <line class="cls-1" x1="201.77" x2="201.77" y2="399.85"/>
      <line class="cls-1" x1="136.35" x2="136.35" y2="399.85"/>
      <line class="cls-1" x1="158.16" x2="158.16" y2="399.85"/>
      <line class="cls-1" x1="92.73" x2="92.73" y2="399.85"/>
      <line class="cls-1" x1="114.54" x2="114.54" y2="399.85"/>
      <line class="cls-1" x1="49.12" x2="49.12" y2="399.85"/>
      <line class="cls-1" x1="70.92" x2="70.92" y2="399.85"/>
      <line class="cls-1" x1="5.5" x2="5.5" y2="399.85"/>
      <line class="cls-1" x1="27.31" x2="27.31" y2="399.85"/>
    </g>
  </g>
</svg>
